<?xml version="1.0" encoding="UTF-8"?>
<!DOCTYPE svg PUBLIC "-//W3C//DTD SVG 1.1//EN" "http://www.w3.org/Graphics/SVG/1.1/DTD/svg11.dtd">
<!-- Creator: CorelDRAW 2017 -->
<svg xmlns="http://www.w3.org/2000/svg" xml:space="preserve" width="411.979mm" height="128.061mm" version="1.1" style="shape-rendering:geometricPrecision; text-rendering:geometricPrecision; image-rendering:optimizeQuality; fill-rule:evenodd; clip-rule:evenodd"
viewBox="0 0 41197.9 12806.1"
 xmlns:xlink="http://www.w3.org/1999/xlink">
 <defs>
  <style type="text/css">
   <![CDATA[
    .fil0 {fill:#2A3A79}
    .fil1 {fill:#EB6223}
   ]]>
  </style>
 </defs>
 <g id="Слой_x0020_1">
  <metadata id="CorelCorpID_0Corel-Layer"/>
  <g id="_1197027952">
   <g id="_1838019091552">
    <path class="fil0" d="M40959.53 11833.41l0 -446.78 -46.33 0c-38.49,92.67 -88.94,69.21 -159.71,43.91 -73.04,-26.65 -124.85,-43.91 -210.69,-43.91 -322.46,0 -582.88,333.75 -582.88,679.67 0,331.53 176.62,737.25 566.65,737.25 280.58,0 531.6,-189.6 531.6,-469.31l0 -81.58 139.73 0 0 -39.84 -501.55 0 0 39.84 138.86 0 0 151.13c0,340.63 -182.63,364.58 -312.91,364.58 -57.63,0 -101.2,-26.71 -145.02,-62.77 -39.64,-33.49 -167.55,-149.77 -167.55,-615.89 0,-277.33 28.06,-551.42 232.89,-635.56 34.22,-14.35 72.65,-23.61 107.74,-23.61 170.81,0 256.79,89.77 278.84,121.76 50.8,67.56 81.77,191.16 90.83,281.11l39.5 0zm-2706.56 -77.45l171.52 520.11 -366.08 0 194.56 -520.11zm185.34 561.99l147.73 423.71 -176.96 0 0 42.27 547.02 0 0 -42.27 -134.75 0 -454.34 -1331.96 -35.72 0 -440.63 1189.9c-21.52,57.77 -75.07,136.1 -163.29,142.06l0 42.27 339.09 0 0 -42.27c-109.78,-5.96 -127.91,-40.86 -127.91,-99.5 0,-51.82 23.61,-104.65 37.61,-136.98l70.96 -187.23 391.19 0zm-3059.42 -931.32l-47.89 0c-28.35,92.67 -96.4,67.52 -151.8,43.91 -65.19,-24.42 -111.19,-43.91 -193.39,-43.91 -133.92,0 -332.39,48.57 -473.29,287.76 -69.26,118.99 -111.82,251.02 -111.82,377.03 0,98.98 5.09,215.59 31.8,314.95 61.21,226.2 249.8,439.75 514.15,439.75l0.82 0 0.97 0c21.47,-0.34 130.33,-6.01 229.69,-61.55 39.51,-22.54 71.3,-44.45 104.99,-44.45 53.55,0 61.21,64.47 63.64,83.81l51.28 0 16.91 -457.93 -47.16 0c-38.68,219.9 -106.73,348.63 -279.9,418.42 -29.96,10.96 -61.75,21.72 -94.57,21.72 -138.52,0 -341.65,-95.24 -341.65,-465.25l0 -339.42c0,-449.16 215.1,-535.34 346.94,-535.34 232.02,0 315.28,160.19 340.63,407.28l39.65 0 0 -446.78zm-2440.67 62.91l0 1292.12 -153.02 0 0 42.27 529.38 0 0 -42.27 -153.89 0 0 -1292.12 153.89 0 0 -39.84 -529.38 0 0 39.84 153.02 0zm-2025.48 0l0 1292.12 -154.03 0 0 42.27 530.38 0 0 -42.27 -153.54 0 0 -641.67 139.68 0c69.6,0 190.48,12.46 203.13,255.77l39.36 0 0 -549.54 -39.36 0c-22.39,236.96 -135.76,250.83 -215.44,250.83l-127.37 0 0 -607.51 250.82 0c230.85,0 326.24,153.55 342.48,400.26l48.56 0 -23.07 -440.1 -995.63 0 0 39.84 154.03 0zm-2027 0l0 1292.12 -152.38 0 0 42.27 529.23 0 0 -42.27 -153.89 0 0 -641.67 140.56 0c68.72,0 190.82,12.46 203.13,255.77l39.98 0 0 -549.54 -39.98 0c-22.25,236.96 -136.3,250.83 -215.3,250.83l-128.39 0 0 -607.51 251.35 0c231,0 326.92,153.55 342.82,400.26l47.35 0 -20.84 -440.1 -996.02 0 0 39.84 152.38 0zm-1837.09 306.42l171.87 520.11 -366.62 0 194.75 -520.11zm185 561.99l148.41 423.71 -177.1 0 0 42.27 547.98 0 0 -42.27 -135.56 0 -454.15 -1331.96 -36.11 0 -440.29 1189.9c-22.39,57.77 -75.56,136.1 -164.11,142.06l0 42.27 340.05 0 0 -42.27c-110.07,-5.96 -128.2,-40.86 -128.2,-99.5 0,-51.82 23.75,-104.65 38.63,-136.98l70.62 -187.23 389.83 0zm-2366.08 -281.41l-139.34 0 0 -587 151.66 0c204.68,0 305.54,60.01 305.54,264.83 0,278.07 -152.53,322.17 -317.86,322.17zm14.01 705.12l-153.35 0 0 -662.37 161.4 0c59.66,0 128.92,3.93 177.49,45.32 69.74,63.06 79.34,212 95.58,365.21 7.7,79.49 13.67,175.75 55.74,236.82 49.68,69.6 122.48,78.95 175.94,79.48l2.61 0 2.52 0 2.82 0 2.85 0c59.09,-0.34 132.42,-7.65 205.32,-112.49l-29.57 -34.03c-16.24,19.15 -69.45,71.3 -107.4,71.3 -77.94,0 -75.57,-235.12 -85.84,-329.29 -11.44,-111.87 -21.52,-285.58 -359.39,-342.33l0 -7.86c299.92,-25.3 408.83,-172.01 408.83,-335.64 0,-41.39 -9.75,-81.91 -26.86,-117.63 -92.33,-190.34 -330.84,-188.45 -519.29,-188.45l-539.25 0 0 39.84 153.69 0 0 1292.12 -153.69 0 0 42.27 529.85 0 0 -42.27zm-2253.58 -1292.12l0 1292.12 -152.34 0 0 42.27 529.86 0 0 -42.27 -154.03 0 0 -1292.12c115.25,0 155.05,6.3 171.82,10.28 169.1,37.42 230.51,204.15 248.78,381.44l55.74 0 -9.4 -431.56 -1155.68 0 -9.4 431.56 54.52 0c31.46,-310.68 157.48,-396.51 420.13,-391.72zm-3478.71 1292.12l-269.43 0 0 -1292.12 213.21 0c254.75,0 424.04,102.76 424.04,660.68 0,326.91 -99.36,520.16 -189.12,584.43 -59.66,42.41 -137.84,47.01 -178.7,47.01zm-64.27 -1331.96l-582.2 0 0 39.84 153.69 0 0 1292.12 -153.69 0 0 42.27 635.9 0c349.11,0 525.92,-246.42 591.74,-438.06 27.87,-82.11 38.15,-168.62 38.15,-256.16 0,-109.78 -30.25,-221.11 -77.45,-320.61 -165.86,-346.41 -488.7,-359.4 -606.14,-359.4zm-2521.71 39.84l0 1292.12 -153.55 0 0 42.27 1010.04 0 41.53 -428.17 -47.88 0c-59.14,358.71 -227.08,385.9 -342.82,385.9l-284.7 0 0 -670.75 83.99 0c141.38,0 173.52,64.8 203.28,255.09l39.16 0 0 -549.54 -39.16 0c-22.59,237.35 -135.57,252.18 -215.59,252.18l-71.68 0 0 -579.1 250.67 0c207.59,0 299.39,138.48 329.69,356.68l47.16 0 -21.86 -396.52 -981.83 0 0 39.84 153.55 0zm-1877.03 0l0 1292.12 -153.02 0 0 42.27 529.38 0 0 -42.27 -153.36 0 0 -1292.12c115.4,0 155.39,6.3 171.14,10.28 169.93,37.42 231.49,204.15 249.81,381.44l55.54 0 -10.22 -431.56 -1155.34 0 -9.79 431.56 55.78 0c31.94,-310.68 156.94,-396.51 420.08,-391.72zm-2119.52 306.42l170.8 520.11 -366.23 0 195.43 -520.11zm185.34 561.99l146.86 423.71 -176.96 0 0 42.27 548.18 0 0 -42.27 -135.76 0 -454.15 -1331.96 -35.53 0 -440.82 1189.9c-22.05,57.77 -75.56,136.1 -163.62,142.06l0 42.27 338.89 0 0 -42.27c-109.59,-5.96 -126.89,-40.86 -126.89,-99.5 0,-51.82 23.26,-104.65 37.61,-136.98l72.02 -187.23 390.17 0zm-2068.38 -868.41l0 1292.12 -153.41 0 0 42.27 530.05 0 0 -42.27 -152.67 0 0 -1292.12 152.67 0 0 -39.84 -530.05 0 0 39.84 153.41 0zm-1224.8 -62.91l-48.22 0c-27.34,92.67 -95.39,67.52 -151.32,43.91 -65.82,-24.42 -111.29,-43.91 -192.71,-43.91 -133.68,0 -333.08,48.57 -474.8,287.76 -69.26,118.99 -110.99,251.02 -110.99,377.03 0,98.98 5.33,215.59 31.99,314.95 61.7,226.2 248.59,439.75 513.28,439.75l0.82 0 1.02 0c21.71,-0.34 131.49,-6.01 229.35,-61.55 39.84,-22.54 72.51,-44.45 106.34,-44.45 53.7,0 61.07,64.47 63.11,83.81l51.81 0 16.24 -457.93 -48.38 0c-37.66,219.9 -105.17,348.63 -278.74,418.42 -29.76,10.96 -61.7,21.72 -93.15,21.72 -139.88,0 -343.35,-95.24 -343.35,-465.25l0 -339.42c0,-449.16 215.78,-535.34 347.27,-535.34 232.89,0 314.61,160.19 340.59,407.28l39.84 0 0 -446.78zm-3086.11 708.37c0,-542.7 209.81,-668.87 376.34,-668.87 108.04,0 379.07,53.17 379.07,668.87 0,164.5 -2.56,539.64 -277.33,649.57 -31.99,14.39 -67.71,21.57 -101.74,21.57 -33.88,0 -67.56,-7.18 -99.5,-21.57 -265.02,-105.66 -276.84,-443.68 -276.84,-649.57zm376.34 -708.37c-338.05,0 -627.17,314.76 -627.17,708.37 0,480.66 370.53,711.12 627.17,711.12 259.02,0 629.41,-230.46 629.41,-711.12 0,-393.61 -288.29,-708.37 -629.41,-708.37zm-2569.73 959.24l-22.05 0 0 438.06 47.89 0c7.85,-53.03 41.68,-80.03 83.94,-80.03 41.69,0 89.77,40.52 155.05,64.47 65,25.25 152.97,37.37 228,37.75l3.54 0c230.85,0 366.42,-190.82 366.42,-412.75 0,-167.9 -66.02,-339.38 -296.82,-405.59l-203.67 -56.07c-94.9,-26.66 -245.01,-71.11 -245.01,-260.08 0,-141.05 103.97,-246.56 253.4,-246.56 133.19,0 278.54,72.17 380.09,315.33l28.2 0 -8.33 -330.7 -31.65 0c-11.78,27.53 -25.84,51.62 -45.85,51.62 -121.56,0 -117.3,-74.69 -328.76,-74.69 -149.48,0 -248.99,89.91 -298.91,190.48 -25.49,50.75 -41.73,109.06 -41.73,166.35 0,144.67 29.76,346.25 283.15,421.48l234.78 66.49c193.2,54.73 213.22,199.55 213.22,281.65 0,169.59 -149.29,251.51 -280.78,251.51 -145.31,0 -344.85,-74.89 -474.12,-418.72zm-1948.57 0l-22.05 0 0 438.06 47.88 0c8.53,-53.03 41.88,-80.03 83.95,-80.03 41.73,0 89.62,40.52 155.44,64.47 64.32,25.25 152.62,37.37 227.61,37.75l3.53 0c230.86,0 366.08,-190.82 366.08,-412.75 0,-167.9 -64.94,-339.38 -296.82,-405.59l-203.13 -56.07c-94.7,-26.66 -245.34,-71.11 -245.34,-260.08 0,-141.05 103.96,-246.56 253.73,-246.56 133.53,0 279.03,72.17 379.94,315.33l28.36 0 -7.86 -330.7 -31.98 0c-12.12,27.53 -25.64,51.62 -46.15,51.62 -121.22,0 -117.48,-74.69 -328.13,-74.69 -149.76,0 -249.46,89.91 -299.05,190.48 -26.51,50.75 -42.07,109.06 -42.07,166.35 0,144.67 30.3,346.25 283.15,421.48l235.12 66.49c193.05,54.73 212.68,199.55 212.68,281.65 0,169.59 -149.08,251.51 -280.92,251.51 -145.16,0 -344.17,-74.89 -473.97,-418.72zm-1705.21 -589.91l171.33 520.11 -366.27 0 194.94 -520.11zm185.49 561.99l147.39 423.71 -177.83 0 0 42.27 548.22 0 0 -42.27 -135.61 0 -454.64 -1331.96 -35.23 0 -440.63 1189.9c-21.57,57.77 -75.22,136.1 -162.8,142.06l0 42.27 337.87 0 0 -42.27c-109.05,-5.96 -127.18,-40.86 -127.18,-99.5 0,-51.82 24.43,-104.65 38.1,-136.98l71.49 -187.23 390.85 0z"/>
    <path class="fil0" d="M38417.66 9319.51l-1240.84 0 0 411.54 3833.51 0 0 -411.54 -947.46 0 -3178.6 -9319.53 -250.83 0 -732.01 1972.8 2516.23 7346.73zm-33716.19 -9319.53l-250.67 0 -731.49 1972.8 2515.56 7346.73 -1239.82 0 0 411.54 3833.83 0 0 -411.54 -948.28 0 -3179.13 -9319.53zm23254.26 9319.53l0 -3146.12 806.03 0c299.58,0 648.22,20.69 887.41,231.34 347.61,314.26 396.86,1070.02 476.88,1834.85 41.05,398.7 69.26,881.06 278.4,1184.91 258.87,355.66 637.94,397.54 906.55,397.54 299.73,0 676.57,-20.7 1055.29,-566.11l-148.54 -167.95c-81.77,94.23 -347.96,356.54 -538.29,356.54 -389.15,0 -378.54,-1172.79 -427.78,-1644.73 -59.86,-555.54 -110.32,-1520.92 -1792.46,-1804.22l0 -42.22c1494.91,-124.66 1684.37,-858.52 1684.37,-1676.03 0,-209.29 -49.92,-408.49 -138.81,-587.15 -457.25,-953.95 -1296.24,-944.16 -2234.63,-944.16l-2695.91 0 0 388.28 765.51 0 0 6185.23 -765.51 0 0 407.61 2648.75 0 0 -407.61 -767.26 0zm0 -3522.48l696.98 0c827.55,0 1473.34,-136.1 1473.34,-1531.5 0,-725.86 -544.2,-1131.25 -1412.51,-1131.25l-757.81 0 0 2662.75zm-6778 3514.96l-2.91 415.13 2648.89 0 0 -413.62 -767.54 0 0 -6072.35 1912.99 0 0 978.38 467.14 0 0 -1474.06 -5874.55 0 0 1474.06 461.66 0 0 -978.38 1916.24 0 8.19 6070.84 -770.11 0zm-6517.58 -1862.39c703.96,1758.91 1580.6,2023.45 2307.73,2023.45 656.6,0 1380.57,-297.49 1380.57,-1166.14 0,-417.85 -75.95,-1275.55 -1041.83,-1555.6l-1175.31 -343c-1264.24,-374.46 -1413.87,-1295.21 -1413.87,-2035.42 0,-289.12 80.7,-589.38 209.1,-846.89 249.8,-513.62 746.7,-975.13 1493.84,-975.13 1054.81,0 1779.13,596.59 1779.13,596.59l0 -503.2 291.87 0 0 1718.4 -186.75 0c-507.46,-1244.62 -1187.28,-1498.35 -1853.96,-1498.35 -748.01,0 -1240.79,426.09 -1240.79,1143.71 0,965.39 722.57,1309.42 1200.42,1449.1l1015.31 288.63c1155.34,332.4 1485.02,1093.1 1485.02,1950.6 0,1136.68 -678.46,2111.81 -1833.31,2111.81 -651.8,0 -1198.58,-127.86 -2255.09,-749.56l0 668.52 -333.07 0 0 -2277.52 170.99 0zm-5184.6 0c645.79,1758.91 1523.31,2023.45 2249.99,2023.45 657.43,0 1380.67,-297.49 1380.67,-1166.14 0,-417.85 -75.22,-1275.55 -1041.63,-1555.6l-1175.16 -343c-1264.11,-374.46 -1413.87,-1295.21 -1413.87,-2035.42 0,-289.12 80.16,-589.38 209.77,-846.89 248.78,-513.62 745.15,-975.13 1493.4,-975.13 1055.5,0 1778.94,596.59 1778.94,596.59l0 -503.2 291.87 0 0 1718.4 -187.09 0c-508.14,-1244.62 -1187.32,-1498.35 -1854.3,-1498.35 -747.04,0 -1240.69,426.09 -1240.69,1143.71 0,965.39 723.1,1309.42 1200.51,1449.1l1015.8 288.63c1155.2,332.4 1484.15,1093.1 1484.15,1950.6 0,1136.68 -677.78,2111.81 -1831.42,2111.81 -652.82,0 -1200.32,-127.86 -2255.82,-749.56l0 668.52 -334.77 0 0 -2277.52 229.65 0z"/>
    <path class="fil1" d="M1339.61 9319.46l1257.76 0 0 411.54 -2370.2 0 0 -411.54 767.54 0 2443.92 -6589.79 168.57 496.02 -1065.91 2834.62 3554.08 0 98.83 293.09 -3722.51 0 -1132.08 2966.06zm33314.39 -2966.06l3723.04 0 -100.03 -293.09 -3553.61 0 1067.13 -2834.62 -169.44 -496.02 -2443.73 6589.79 -767.54 0 0 411.54 2370.2 0 0 -411.54 -1258.97 0 1132.95 -2966.06z"/>
   </g>
  </g>
 </g>
</svg>
